<?xml version="1.0" encoding="iso-8859-1"?>
<!-- Generator: Adobe Illustrator 19.0.0, SVG Export Plug-In . SVG Version: 6.00 Build 0)  -->
<svg xmlns="http://www.w3.org/2000/svg" xmlns:xlink="http://www.w3.org/1999/xlink" version="1.1" id="Layer_1" x="0px" y="0px" viewBox="0 0 511.999 511.999" style="enable-background:new 0 0 511.999 511.999;" xml:space="preserve" width="512px" height="512px">
<g>
	<g>
		<path d="M389.981,171.377c-24.531,0-44.488-19.957-44.488-44.49C345.492,56.921,288.57,0,218.603,0h-19.815    C159.062,0,121.86,15.629,94.034,44.011c-3.329,3.397-3.276,8.849,0.119,12.179c3.397,3.328,8.848,3.277,12.179-0.121    c24.561-25.049,57.395-38.844,92.456-38.844h19.815c60.469,0,109.664,49.194,109.664,109.662c0,34.03,27.684,61.714,61.713,61.714    c29.064,0,52.708,23.645,52.708,52.709v87.807c0.001,4.757,3.856,8.613,8.613,8.613s8.612-3.856,8.612-8.612V241.31    C459.913,202.748,428.542,171.377,389.981,171.377z" fill="#FFFFFF"/>
	</g>
</g>
<g>
	<g>
		<path d="M451.301,354.953c-4.757,0-8.612,3.856-8.612,8.612v43.139h-29.101H98.411H69.309V146.703    c0-22.74,5.978-45.105,17.29-64.679c2.379-4.118,0.97-9.386-3.147-11.765c-4.12-2.379-9.387-0.97-11.767,3.147    c-12.822,22.19-19.599,47.535-19.599,73.297v268.613v88.071c0,4.756,3.855,8.612,8.612,8.612h390.604    c4.757,0,8.612-3.856,8.612-8.612v-88.071v-51.751C459.913,358.808,456.059,354.953,451.301,354.953z M392.298,423.929h12.677    v40.751h-12.677V423.929z M356.001,423.929h19.072v40.751h-19.072V423.929z M319.706,423.929h19.071v40.751h-19.071V423.929z     M283.41,423.929h19.071v40.751H283.41V423.929z M247.113,423.929h19.072v40.751h-19.072V423.929z M210.818,423.929h19.071v40.751    h-19.071V423.929z M174.521,423.929h19.071v40.751h-19.071V423.929z M138.225,423.929h19.072v40.751h-19.072V423.929z     M107.023,423.929H121v40.751h-13.977V423.929z M442.689,494.776H69.309v-70.846h20.49v49.363c0,4.756,3.855,8.612,8.612,8.612    h315.177c4.757,0,8.612-3.856,8.612-8.612v-49.363h20.489V494.776z" fill="#FFFFFF"/>
	</g>
</g>
<g>
</g>
<g>
</g>
<g>
</g>
<g>
</g>
<g>
</g>
<g>
</g>
<g>
</g>
<g>
</g>
<g>
</g>
<g>
</g>
<g>
</g>
<g>
</g>
<g>
</g>
<g>
</g>
<g>
</g>
</svg>
