<?xml version="1.0" encoding="iso-8859-1"?>
<!-- Generator: Adobe Illustrator 19.0.0, SVG Export Plug-In . SVG Version: 6.00 Build 0)  -->
<svg xmlns="http://www.w3.org/2000/svg" xmlns:xlink="http://www.w3.org/1999/xlink" version="1.1" id="Layer_1" x="0px" y="0px" viewBox="0 0 511.999 511.999" style="enable-background:new 0 0 511.999 511.999;" xml:space="preserve" width="512px" height="512px">
<g>
	<g>
		<path d="M133.691,434.977l-56.623-56.622c-3.431-3.431-8.995-3.431-12.425,0c-3.431,3.431-3.431,8.994,0,12.425l56.623,56.622    c1.715,1.716,3.965,2.574,6.213,2.574s4.498-0.858,6.213-2.574C137.122,443.971,137.122,438.407,133.691,434.977z" fill="#FFFFFF"/>
	</g>
</g>
<g>
	<g>
		<path d="M509.426,78.318l-4.712-4.712c3.817-5.305,4.856-12.264,2.579-18.515l-10.254-28.153    c-2.024-5.557-6.372-9.905-11.93-11.929L456.956,4.753c-6.25-2.277-13.21-1.237-18.515,2.58l-4.712-4.712    c-3.431-3.431-8.995-3.431-12.425,0c-3.431,3.431-3.431,8.995,0,12.427l4.523,4.523l-6.795,6.795l-4.523-4.523    c-3.431-3.431-8.995-3.431-12.425,0c-3.431,3.431-3.431,8.994,0,12.425l4.523,4.523l-6.795,6.795l-4.523-4.523    c-3.43-3.431-8.994-3.431-12.425,0c-3.431,3.431-3.431,8.995,0,12.427l4.605,4.605c-5.325,6.502-6.538,15.252-3.674,22.796    L279.03,181.079c-40.535-22.099-86.75-18.406-115.432,10.276c-8.746,8.746-15.278,19.199-19.415,31.072    c-8.186,23.479-29.41,40.407-54.077,43.127c-23.794,2.641-44.841,12.507-60.864,28.532c-21.521,21.515-31.723,51.643-28.73,84.828    c2.941,32.591,18.325,64.306,43.32,89.301c28.874,28.874,65.77,43.741,100.419,43.738c27.789-0.002,54.136-9.569,73.712-29.146    c16.024-16.024,25.891-37.071,28.532-60.867c2.73-24.654,19.658-45.88,43.124-54.074c11.895-4.145,22.354-10.673,31.084-19.404    c28.683-28.683,32.372-74.901,10.265-115.443l100.188-104.765c2.638,1.002,5.421,1.522,8.208,1.522    c5.181,0,10.36-1.733,14.588-5.195l4.605,4.605c1.715,1.716,3.964,2.574,6.213,2.574c2.248,0,4.498-0.858,6.213-2.574    c3.431-3.431,3.431-8.994,0-12.425l-4.523-4.523l6.795-6.795l4.523,4.523c1.715,1.716,3.965,2.574,6.213,2.574    c2.248,0,4.498-0.858,6.213-2.574c3.431-3.431,3.431-8.995,0-12.427l-4.523-4.523l6.794-6.794l4.523,4.523    c1.715,1.715,3.965,2.574,6.213,2.574s4.498-0.858,6.213-2.574C512.858,87.312,512.858,81.748,509.426,78.318z M308.278,336.035    c-6.844,6.844-15.067,11.97-24.447,15.237c-29.823,10.414-51.333,37.393-54.802,68.731c-2.197,19.785-10.319,37.205-23.492,50.377    c-16.194,16.194-38.054,24.08-61.314,24.079c-30.076-0.002-62.489-13.194-87.965-38.671    c-22.091-22.091-35.672-49.953-38.244-78.453c-2.516-27.904,5.882-53.057,23.651-70.826    c13.172-13.173,30.592-21.295,50.372-23.491c31.354-3.457,58.335-24.971,68.739-54.809c3.259-9.354,8.388-17.573,15.246-24.43    c21.931-21.931,57.211-25.333,89.571-9.854l-47.874,45.783c-13.01,0.606-25.155,5.957-34.426,15.229    c-20.353,20.353-20.353,53.469,0,73.821c9.86,9.86,22.968,15.289,36.911,15.289c13.943,0,27.051-5.43,36.911-15.289    c9.274-9.274,14.626-21.422,15.229-34.435l45.779-47.87C333.611,278.816,330.211,314.102,308.278,336.035z M220.205,257.219    c9.249,0,17.944,3.601,24.484,10.142c6.541,6.538,10.142,15.235,10.142,24.484s-3.601,17.944-10.142,24.485    c-6.541,6.541-15.236,10.142-24.484,10.142c-9.249,0-17.945-3.601-24.485-10.142c-13.501-13.501-13.501-35.468,0-48.969    C202.261,260.82,210.956,257.219,220.205,257.219z M268.76,272.642c-2.59-6.555-6.51-12.574-11.644-17.709    c-5.135-5.136-11.158-9.056-17.715-11.646l155.35-148.563l22.571,22.571L268.76,272.642z M490.222,63.623l-46.987,46.987    c-2.132,2.132-5.605,2.132-7.74-0.001l-34.058-34.058c-2.135-2.135-2.135-5.607,0-7.742l46.987-46.987    c0.457-0.456,1.073-0.701,1.7-0.701c0.274,0,0.551,0.047,0.817,0.144l28.152,10.255c0.668,0.244,1.19,0.765,1.433,1.433    l10.255,28.153C491.097,61.978,490.878,62.966,490.222,63.623z" fill="#FFFFFF"/>
	</g>
</g>
<g>
</g>
<g>
</g>
<g>
</g>
<g>
</g>
<g>
</g>
<g>
</g>
<g>
</g>
<g>
</g>
<g>
</g>
<g>
</g>
<g>
</g>
<g>
</g>
<g>
</g>
<g>
</g>
<g>
</g>
</svg>
